<mxfile host="app.diagrams.net" modified="2022-07-19T23:02:41.821Z" agent="5.0 (Windows NT 10.0; Win64; x64) AppleWebKit/537.36 (KHTML, like Gecko) Chrome/103.0.0.0 Safari/537.36" etag="VGrSL3wIi9LsmtJixYfL" version="20.1.2" type="github">
  <diagram id="kgpKYQtTHZ0yAKxKKP6v" name="Page-1">
    <mxGraphModel dx="593" dy="331" grid="1" gridSize="10" guides="1" tooltips="1" connect="1" arrows="1" fold="1" page="1" pageScale="1" pageWidth="850" pageHeight="1100" math="0" shadow="0">
      <root>
        <mxCell id="0" />
        <mxCell id="1" parent="0" />
        <mxCell id="3nuBFxr9cyL0pnOWT2aG-2" value="" style="points=[];perimeter=orthogonalPerimeter;rounded=0;shadow=0;strokeWidth=1;" parent="1" vertex="1">
          <mxGeometry x="155" y="150" width="135" height="190" as="geometry" />
        </mxCell>
        <mxCell id="3nuBFxr9cyL0pnOWT2aG-10" value="T1YX1 uint8" style="verticalAlign=bottom;endArrow=open;dashed=1;endSize=8;exitX=-0.017;exitY=0.993;shadow=0;strokeWidth=1;exitDx=0;exitDy=0;exitPerimeter=0;entryX=0.997;entryY=1.004;entryDx=0;entryDy=0;entryPerimeter=0;" parent="1" source="3nuBFxr9cyL0pnOWT2aG-6" target="3nuBFxr9cyL0pnOWT2aG-4" edge="1">
          <mxGeometry relative="1" as="geometry">
            <mxPoint x="410" y="250" as="targetPoint" />
          </mxGeometry>
        </mxCell>
        <mxCell id="3nuBFxr9cyL0pnOWT2aG-3" value="Raw&#xa;Image" style="verticalAlign=bottom;startArrow=oval;endArrow=block;startSize=8;shadow=0;strokeWidth=1;" parent="1" target="3nuBFxr9cyL0pnOWT2aG-2" edge="1">
          <mxGeometry x="-0.1667" relative="1" as="geometry">
            <mxPoint x="95" y="150" as="sourcePoint" />
            <mxPoint as="offset" />
          </mxGeometry>
        </mxCell>
        <mxCell id="3nuBFxr9cyL0pnOWT2aG-4" value="Format Regulartization" style="points=[];perimeter=orthogonalPerimeter;rounded=0;shadow=0;strokeWidth=1;whiteSpace=wrap;" parent="1" vertex="1">
          <mxGeometry x="168.75" y="160" width="107.5" height="40" as="geometry" />
        </mxCell>
        <mxCell id="3nuBFxr9cyL0pnOWT2aG-6" value="- Lazy load&#xa;- Stretch histogram to min/max&#xa;- Convert to uint8&#xa;- Regularize to TZYXC&#xa;- Write chunked h5" style="points=[];perimeter=orthogonalPerimeter;rounded=0;shadow=0;strokeWidth=1;verticalAlign=top;align=left;" parent="1" vertex="1">
          <mxGeometry x="380" y="120" width="170" height="80" as="geometry" />
        </mxCell>
        <mxCell id="PtT5wam6bBAcdDgrsHmM-2" value="" style="verticalAlign=bottom;endArrow=open;dashed=1;endSize=8;exitX=0.997;exitY=-0.004;shadow=0;strokeWidth=1;exitDx=0;exitDy=0;exitPerimeter=0;entryX=-0.017;entryY=0.036;entryDx=0;entryDy=0;entryPerimeter=0;" edge="1" parent="1" source="3nuBFxr9cyL0pnOWT2aG-4" target="3nuBFxr9cyL0pnOWT2aG-6">
          <mxGeometry relative="1" as="geometry">
            <mxPoint x="285.4975000000002" y="208.79999999999995" as="targetPoint" />
            <mxPoint x="407.96000000000004" y="209.37" as="sourcePoint" />
          </mxGeometry>
        </mxCell>
        <mxCell id="PtT5wam6bBAcdDgrsHmM-3" value="Preprocessing" style="points=[];perimeter=orthogonalPerimeter;rounded=0;shadow=0;strokeWidth=1;whiteSpace=wrap;" vertex="1" parent="1">
          <mxGeometry x="168.75" y="225" width="107.5" height="40" as="geometry" />
        </mxCell>
        <mxCell id="3nuBFxr9cyL0pnOWT2aG-8" value="" style="verticalAlign=bottom;endArrow=block;shadow=0;strokeWidth=1;exitX=0.515;exitY=1.011;exitDx=0;exitDy=0;exitPerimeter=0;entryX=0.512;entryY=0.003;entryDx=0;entryDy=0;entryPerimeter=0;" parent="1" source="3nuBFxr9cyL0pnOWT2aG-4" target="PtT5wam6bBAcdDgrsHmM-3" edge="1">
          <mxGeometry relative="1" as="geometry">
            <mxPoint x="330" y="80" as="sourcePoint" />
            <mxPoint x="223" y="220" as="targetPoint" />
            <Array as="points" />
          </mxGeometry>
        </mxCell>
        <mxCell id="PtT5wam6bBAcdDgrsHmM-4" value="" style="verticalAlign=bottom;endArrow=open;dashed=1;endSize=8;exitX=-0.002;exitY=0.995;shadow=0;strokeWidth=1;exitDx=0;exitDy=0;exitPerimeter=0;entryX=1.006;entryY=0.997;entryDx=0;entryDy=0;entryPerimeter=0;" edge="1" parent="1" source="PtT5wam6bBAcdDgrsHmM-5" target="PtT5wam6bBAcdDgrsHmM-3">
          <mxGeometry relative="1" as="geometry">
            <mxPoint x="319.99750000000006" y="288.79999999999995" as="targetPoint" />
          </mxGeometry>
        </mxCell>
        <mxCell id="PtT5wam6bBAcdDgrsHmM-5" value="- Contrast enhancement (CLAHE)" style="points=[];perimeter=orthogonalPerimeter;rounded=0;shadow=0;strokeWidth=1;verticalAlign=top;align=left;" vertex="1" parent="1">
          <mxGeometry x="380" y="225" width="185.5" height="40" as="geometry" />
        </mxCell>
        <mxCell id="PtT5wam6bBAcdDgrsHmM-6" value="" style="verticalAlign=bottom;endArrow=open;dashed=1;endSize=8;shadow=0;strokeWidth=1;entryX=0.001;entryY=0.003;entryDx=0;entryDy=0;entryPerimeter=0;exitX=1.005;exitY=-0.005;exitDx=0;exitDy=0;exitPerimeter=0;" edge="1" parent="1" target="PtT5wam6bBAcdDgrsHmM-5" source="PtT5wam6bBAcdDgrsHmM-3">
          <mxGeometry relative="1" as="geometry">
            <mxPoint x="329.9975000000002" y="298.79999999999995" as="targetPoint" />
            <mxPoint x="280" y="230" as="sourcePoint" />
          </mxGeometry>
        </mxCell>
        <mxCell id="PtT5wam6bBAcdDgrsHmM-7" value="Probability&#xa;Map" style="points=[];perimeter=orthogonalPerimeter;rounded=0;shadow=0;strokeWidth=1;whiteSpace=wrap;" vertex="1" parent="1">
          <mxGeometry x="168.75" y="289.56" width="107.5" height="40" as="geometry" />
        </mxCell>
        <mxCell id="PtT5wam6bBAcdDgrsHmM-8" value="" style="verticalAlign=bottom;endArrow=block;shadow=0;strokeWidth=1;exitX=0.515;exitY=1.011;exitDx=0;exitDy=0;exitPerimeter=0;entryX=0.512;entryY=0.003;entryDx=0;entryDy=0;entryPerimeter=0;" edge="1" parent="1" target="PtT5wam6bBAcdDgrsHmM-7">
          <mxGeometry relative="1" as="geometry">
            <mxPoint x="224.11250000000007" y="264.99999999999994" as="sourcePoint" />
            <mxPoint x="223" y="284.56" as="targetPoint" />
            <Array as="points" />
          </mxGeometry>
        </mxCell>
        <mxCell id="PtT5wam6bBAcdDgrsHmM-9" value="" style="verticalAlign=bottom;endArrow=open;dashed=1;endSize=8;exitX=-0.002;exitY=0.995;shadow=0;strokeWidth=1;exitDx=0;exitDy=0;exitPerimeter=0;entryX=1.006;entryY=0.997;entryDx=0;entryDy=0;entryPerimeter=0;" edge="1" parent="1" source="PtT5wam6bBAcdDgrsHmM-10" target="PtT5wam6bBAcdDgrsHmM-7">
          <mxGeometry relative="1" as="geometry">
            <mxPoint x="319.99750000000006" y="353.35999999999996" as="targetPoint" />
          </mxGeometry>
        </mxCell>
        <mxCell id="PtT5wam6bBAcdDgrsHmM-10" value="- Contrast enhancement (CLAHE)" style="points=[];perimeter=orthogonalPerimeter;rounded=0;shadow=0;strokeWidth=1;verticalAlign=top;align=left;" vertex="1" parent="1">
          <mxGeometry x="380" y="289.56" width="185.5" height="40" as="geometry" />
        </mxCell>
        <mxCell id="PtT5wam6bBAcdDgrsHmM-11" value="" style="verticalAlign=bottom;endArrow=open;dashed=1;endSize=8;shadow=0;strokeWidth=1;entryX=0.001;entryY=0.003;entryDx=0;entryDy=0;entryPerimeter=0;exitX=1.005;exitY=-0.005;exitDx=0;exitDy=0;exitPerimeter=0;" edge="1" parent="1" source="PtT5wam6bBAcdDgrsHmM-7" target="PtT5wam6bBAcdDgrsHmM-10">
          <mxGeometry relative="1" as="geometry">
            <mxPoint x="329.9975000000002" y="363.35999999999996" as="targetPoint" />
            <mxPoint x="280" y="294.56" as="sourcePoint" />
          </mxGeometry>
        </mxCell>
      </root>
    </mxGraphModel>
  </diagram>
</mxfile>
